<svg xmlns="http://www.w3.org/2000/svg" width="491.569" height="85.136" viewBox="0 0 491.569 85.136">
  <g id="Layer_x0020_1" transform="translate(0.01 0.002)">
    <path id="Path_1" data-name="Path 1" d="M-.009,76.972H58.546c13.421,0,23.575,1.48,34.031-7.308l1.341-1.16a11.294,11.294,0,0,0,1.226-1.127c5.59-5.529,8.086-13.462,11.155-20.764L111.952,32.7H93.121a13.932,13.932,0,0,1-.778,2.018l-2.61,6.215C88.485,43.761,85.8,50.962,84.21,53.064a15.158,15.158,0,0,1-2.856,3.028,14.947,14.947,0,0,1-8.535,3.233c-3.653.192-7.9,0-11.624,0H25.885l1.345-3.509c.461-1.153.968-2.419,1.429-3.572l8.428-21.136c1.82-4.551,2.064-6.115,5.311-9.4C44.982,19.095,49.01,17.7,53.25,17.7c13.865.017,28.141-.136,41.933,0,1.454.014,1.041.06,1.973-.528,1.078-.679,2.006-1.25,3.089-1.913,7.044-4.313,14.367-9.068,21.335-13.235A27.374,27.374,0,0,0,124.606.053H61.784c-4.12,0-8.636-.192-12.51.143a31.2,31.2,0,0,0-18.494,8.28c-.361.349-.529.4-.888.73-.586.538-.893,1.04-1.471,1.618a35.2,35.2,0,0,0-3.946,5.468L.873,74.618A17.776,17.776,0,0,0-.01,76.971Z" transform="translate(0 0)" fill="#51b39f" fill-rule="evenodd"/>
    <path id="Path_2" data-name="Path 2" d="M601.92,422.731h28.4l3.214-7.964c.536-1.331,1.1-2.672,1.619-3.971l1.64-4.1H608.394c-.627,1.185-6.428,15.485-6.473,16.031Z" transform="translate(-553.526 -373.997)" fill="#0f1014" fill-rule="evenodd"/>
    <path id="Path_3" data-name="Path 3" d="M1615.47,115.726c0,6.522.338,9.7,3.33,15.7a32.567,32.567,0,0,0,6.7,8.937,12.338,12.338,0,0,0,1.031.853,28.949,28.949,0,0,0,5.647,3.964c.514.261.813.476,1.205.68,8.508,4.42,19.9,4.412,28.512.265a34.809,34.809,0,0,0,5.562-3.106c.8-.59,4.55-3.25,4.55-4.118V114.407h-26.2v9.232h15.266v10.55c0,.716-1.42,1.316-2.3,1.85a17.8,17.8,0,0,1-2.955,1.379c-7.178,2.6-14.075,1.933-20.3-2.555a21.917,21.917,0,0,1-8.749-17.629,21.383,21.383,0,0,1,21.108-21.1,23.992,23.992,0,0,1,13.032,4.3,16.852,16.852,0,0,1,2.987,2.854c1.549-1.037,6.967-6.906,7.916-7.159-.072-.857-.921-1.463-1.8-2.153l-4.73-3.373c-4.161-2.31-10.44-4.648-15.893-4.648-5.99,0-10.143.395-15.457,3.012a36.079,36.079,0,0,0-8.9,6.172,32.683,32.683,0,0,0-8.5,14.108,26.149,26.149,0,0,0-1.062,6.475Z" transform="translate(-1485.571 -79.049)" fill="#0f1014" fill-rule="evenodd"/>
    <path id="Path_4" data-name="Path 4" d="M4216.082,125.334c0-7.776,4.784-14.883,11.874-14.883,4.478,0,7.563.683,10.6,4.1,5.574,6.27,4.871,19.613-3.687,23.912C4226.037,142.9,4216.082,136.586,4216.082,125.334Zm-10.931,22.8h10.931v-6.97c.2.233.386.437.611.708l2.166,2.355c5.368,5.394,15.3,6.461,22.105,2.97a21.363,21.363,0,0,0,10.333-11.9,30.529,30.529,0,0,0,.058-20.163c-.276-.745-.5-1.254-.756-1.881a24.763,24.763,0,0,0-3.186-5.1c-.4-.45-.844-.9-1.289-1.349s-.9-.886-1.35-1.288a19.922,19.922,0,0,0-3.283-2.181c-6.031-3.591-15.247-2.969-21.131,1.419-.646.482-.923.774-1.561,1.265-.81.624-2.194,2.585-2.717,2.935V85.96H4205.15v62.171Z" transform="translate(-3867.001 -79.049)" fill="#0f1014" fill-rule="evenodd"/>
    <path id="Path_5" data-name="Path 5" d="M4909.354,313.5h-1.319c-3.982,0-8.1-2.654-8.1-6.594a6.152,6.152,0,0,1,2.984-5.871c5.055-3.492,12.626-1.394,17.936-.157,0,5.2.61,7.265-4.445,10.629a15.263,15.263,0,0,1-7.051,1.993Zm-16.02-35.418,1.822,3.83c.676,1.353,1.27,2.614,1.947,3.894,2.819-1.492,8.232-3.391,11.308-3.391,4.114,0,6.9.095,9.852,3.152,1.831,1.9,2.587,4.683,2.587,8.341-1.832-.426-2.978-1.089-5.855-1.683-7.122-1.472-14.172-1.012-19.913,3.242-11.048,8.188-6.26,26.137,11.256,26.137a20.468,20.468,0,0,0,11.741-3.9c1.085-.808,1.84-1.881,2.771-2.5v5.275H4931.4V291.456a19.368,19.368,0,0,0-3.241-10.325c-3.207-4.8-9.312-7.761-15.229-7.761a32.606,32.606,0,0,0-11.605,1.587C4898.677,275.714,4893.743,277.984,4893.335,278.08Z" transform="translate(-4496.007 -251.388)" fill="#0f1014" fill-rule="evenodd"/>
    <path id="Path_6" data-name="Path 6" d="M2894.4,311.941c-10.932,0-17.284-11.132-13.3-20.646a14.679,14.679,0,0,1,6.391-7.176,13.358,13.358,0,0,1,12.57-.064c8.276,4.312,10.266,16.551,3.817,23.227-2.38,2.463-5.645,4.658-9.475,4.658Zm-.565,9.42c20.83,0,33.259-25.29,17.668-40.835a25.464,25.464,0,0,0-6.925-4.946,24.636,24.636,0,0,0-21.236-.126,29.249,29.249,0,0,0-7.087,4.973,26.58,26.58,0,0,0-4.912,7.147,21.726,21.726,0,0,0-1.555,4.475,20.145,20.145,0,0,0-.441,2.573,21.207,21.207,0,0,0-.2,2.987c.417,4.806,1.286,7.98,3.464,11.618a25.8,25.8,0,0,0,4.022,5.023,25.146,25.146,0,0,0,17.2,7.112Z" transform="translate(-2638.424 -251.15)" fill="#0f1014" fill-rule="evenodd"/>
    <path id="Path_7" data-name="Path 7" d="M5520.47,338.575a13.3,13.3,0,0,1-6.6-1.7l-1.655,5.882c-.219.79-.437,1.306-.606,2.031,7.557,4,16.752,3.508,22.322-3.873a24.1,24.1,0,0,0,2.307-3.723c1.354-2.688,2.351-5.666,3.506-8.552l13.731-34.692c.5-1.246,3.3-8.079,3.365-8.882h-11.118a20.109,20.109,0,0,0-.81,2.018l-10.231,27.829c-.384.995-1.147,3.793-1.775,4.254l-6.617-17.122c-.692-1.919-5.982-15.814-6.764-16.978h-11.307a23.837,23.837,0,0,0,1.344,3.554l4.471,10.6c1.959,4.743,3.948,9.326,5.894,14.078l7.368,17.524c.418,1.015-.072,1.592-.985,3.413-1.111,2.216-2.388,4.333-5.842,4.333Z" transform="translate(-5065.284 -262.148)" fill="#0f1014" fill-rule="evenodd"/>
    <path id="Path_8" data-name="Path 8" d="M3592.387,321.28a25.08,25.08,0,0,0,10.431-2.385,23.189,23.189,0,0,0,4-2.405c.846-.634,3.042-2.213,3.285-3.123-.119-.162-1.423-1.34-1.669-1.535-.719-.575-1.1-.987-1.833-1.558l-1.825-1.567a14.807,14.807,0,0,0-1.835-1.556c-.888.6-1.785,1.927-4.206,3.143a13.183,13.183,0,0,1-12.13.187c-8.218-4.116-10.812-15.971-4.252-23.346a14.621,14.621,0,0,1,3.731-3.053,13.1,13.1,0,0,1,12.524-.105,12.409,12.409,0,0,1,3.956,3.016c.719-.482,6.654-6.031,7.35-6.217-.434-1.626-5.47-4.617-6.784-5.276-6.943-3.485-14.36-3.1-21.354-.056a6.2,6.2,0,0,0-.966.542c-.4.241-.565.3-.97.537a24.6,24.6,0,0,0-7.808,7.267c-2.012,3.036-3.973,7.2-4.142,10.931a21.589,21.589,0,0,0-.17,2.789c.442,4,.613,6.025,2.429,9.643a23.792,23.792,0,0,0,2.232,3.8,25.094,25.094,0,0,0,20.006,10.333Z" transform="translate(-3280.811 -251.068)" fill="#0f1014" fill-rule="evenodd"/>
    <path id="Path_9" data-name="Path 9" d="M2472.441,282.978v-8.666h-10.366c-.434,0-.565.131-.565.565v45.592h10.931v-22.8a13.878,13.878,0,0,1,5.232-11.537c3.077-2.537,6.986-3.346,11.164-3.346v-9.42c-6.447,0-11.763,2.645-15.156,7.645Z" transform="translate(-2263.576 -251.388)" fill="#0f1014" fill-rule="evenodd"/>
  </g>
</svg>
